<svg width="10" height="14" viewBox="0 0 10 14" fill="none" xmlns="http://www.w3.org/2000/svg">
<path d="M10 4.72626C10 4.98626 9.95875 5.23252 9.87625 5.46502C9.79375 5.69814 9.67438 5.90815 9.51813 6.09627C9.36188 6.2844 9.18187 6.44315 8.97812 6.57315C8.77374 6.70252 8.54625 6.78999 8.29437 6.83499C8.24625 7.08999 8.16187 7.325 8.04062 7.53937C7.91874 7.75437 7.765 7.94002 7.57812 8.09689C7.39125 8.25377 7.1875 8.37436 6.96625 8.45936C6.745 8.54436 6.50625 8.58938 6.25 8.59376H3.75C3.61125 8.59376 3.47874 8.61625 3.35312 8.66063C3.22687 8.70563 3.11187 8.76814 3.00812 8.84877C2.90374 8.92939 2.8125 9.02563 2.73438 9.1375C2.65625 9.24938 2.5975 9.375 2.55875 9.51375C2.79312 9.57187 3.00813 9.66562 3.20312 9.79562C3.39875 9.92562 3.56749 10.0844 3.71124 10.2725C3.85437 10.46 3.965 10.6663 4.04312 10.89C4.12125 11.1138 4.1625 11.3506 4.16687 11.6013C4.16687 11.8969 4.1125 12.1744 4.00375 12.4344C3.89563 12.6938 3.74562 12.9219 3.55499 13.1188C3.36374 13.3156 3.1425 13.47 2.89062 13.5819C2.63875 13.6938 2.37 13.75 2.08313 13.75C1.79688 13.75 1.5275 13.6938 1.27625 13.5819C1.02437 13.47 0.803127 13.3181 0.611877 13.1256C0.421252 12.9331 0.271256 12.705 0.162506 12.4407C0.0543811 12.1769 0 11.8969 0 11.6013C0 11.3463 0.0412488 11.1025 0.123749 10.87C0.206249 10.6369 0.32125 10.4288 0.46875 10.2456C0.61625 10.0619 0.791871 9.90314 0.996246 9.76876C1.2 9.63438 1.42375 9.54501 1.66687 9.50001V4.25C1.42375 4.20062 1.2 4.11125 0.996246 3.98125C0.791871 3.85125 0.61625 3.69499 0.46875 3.51124C0.32125 3.32812 0.206249 3.11748 0.123749 2.87998C0.0412488 2.64311 0 2.39937 0 2.14874C0 1.85312 0.0543811 1.57561 0.162506 1.31561C0.271256 1.05624 0.418746 0.829998 0.605621 0.638123C0.791871 0.445623 1.01375 0.29062 1.26938 0.17437C1.52563 0.0581198 1.79688 0 2.08313 0C2.37 0 2.63875 0.0562387 2.89062 0.168114C3.1425 0.279989 3.36125 0.434381 3.54813 0.631257C3.735 0.828132 3.88437 1.05624 3.9975 1.31561C4.11 1.57561 4.16687 1.85312 4.16687 2.14874C4.16687 2.40374 4.12562 2.64748 4.04312 2.87998C3.96062 3.11311 3.84562 3.32125 3.69812 3.50437C3.55062 3.68812 3.37437 3.84687 3.17062 3.98125C2.96687 4.11562 2.74312 4.205 2.5 4.25V8.1775C2.6825 8.03437 2.88 7.92437 3.0925 7.84874C3.305 7.77249 3.52437 7.73438 3.75 7.73438H6.25C6.38875 7.73438 6.52126 7.71188 6.64688 7.66751C6.77313 7.62251 6.88812 7.55999 6.99249 7.47937C7.09624 7.39874 7.1875 7.30251 7.26562 7.19063C7.34375 7.07876 7.4025 6.95314 7.44125 6.81439C7.20688 6.75626 6.9925 6.66252 6.79688 6.53252C6.60187 6.40252 6.43249 6.24626 6.28937 6.06251C6.14562 5.87939 6.035 5.67311 5.95688 5.44499C5.87875 5.21686 5.8375 4.97751 5.83313 4.72626C5.83313 4.43126 5.8875 4.15374 5.99625 3.89374C6.10437 3.63437 6.25188 3.40812 6.43875 3.21625C6.62563 3.02375 6.84687 2.86875 7.10312 2.7525C7.35874 2.63625 7.63 2.57813 7.91687 2.57813C8.20312 2.57813 8.4725 2.63437 8.72375 2.74624C8.97563 2.85812 9.19501 3.01251 9.38126 3.20938C9.56813 3.40626 9.71813 3.63437 9.83063 3.89374C9.94375 4.15374 10 4.43126 10 4.72626Z" fill="#FDFDFD"/>
</svg>
